<svg xmlns="http://www.w3.org/2000/svg" width="24" height="24" viewBox="0 0 24 24" fill="none" stroke="currentColor" stroke-width="2" stroke-linecap="round" stroke-linejoin="round">
<path d="M 3.87664 8.62389 a 3.99077 3.99077 0 0 1 4.76897 -4.759 3.99077 3.99077 0 0 1 6.72445 0 3.99077 3.99077 0 0 1 4.76897 4.76897 3.99077 3.99077 0 0 1 0 6.72445 3.99077 3.99077 0 0 1 -4.759 4.76897 3.99077 3.99077 0 0 1 -6.73443 0 3.99077 3.99077 0 0 1 -4.76897 -4.759 3.99077 3.99077 0 0 1 0 -6.74441 Z" />
  <line x1="12.00784" x2="12.00784" y1="8.00532" y2="15.98686" />
  <line x1="8.01707" x2="15.99861" y1="11.99609" y2="11.99609" />
</svg>
